<svg xmlns="http://www.w3.org/2000/svg" viewBox="0 0 256 256" width="256" height="256">
  <rect width="256" height="256" rx="32" fill="#4F46E5"/>
  <g fill="#ffffff" transform="translate(128 138) scale(0.28)">
    <!-- 2 -->
    <path d="m 31.449764,-142.4986 c 0,-6.21335 8.31865,-23.56757 17.65345,-36.8283 12.74432,-18.10421 27.760281,-32.16756 60.346556,-56.51821 12.925,-9.65843 25.97154,-19.40843 28.9923,-21.66666 28.62898,-21.40222 41.39878,-33.66751 47.26908,-45.40154 4.40398,-8.80303 5.40978,-14.62746 3.78201,-21.90107 -2.46845,-11.03019 -12.27748,-17.31797 -26.97489,-17.29141 -21.74011,-0.0558 -33.0123,12.64782 -41.63246,30.48813 -20.42512,0.0642 -52.241143,-0.017 -52.241143,-0.017 22.814923,-48.03828 58.176213,-77.44652 112.242853,-73.53586 21.26949,2.29001 37.41179,8.91159 48.42865,19.86545 13.32693,13.2507 18.87293,30.41348 16.16529,50.02547 -4.08586,29.59476 -20.74791,50.79575 -64.12906,81.59859 -34.60229,24.56939 -43.64894,31.41196 -51.09637,38.64749 -4.29344,4.17127 -7.80626,8.10877 -7.80626,8.75 0,0.87227 12.58489,1.16586 49.97432,1.16586 h 49.97432 l 7.88072,0.006 c -2.55761,4.53961 -6.14903,7.80395 -9.95233,11.23091 -14.93132,13.45384 -29.58405,22.06849 -46.92164,27.58622 -18.66443,5.94 -21.82199,6.17014 -84.705395,6.17365 l -57.250001,0.003 z"/>
    <!-- S -->
    <path d="m 365.79787,-184.60848 c 0,0 31.59998,-8.82134 32.8579,-26.84682 -0.10249,-12.82811 -9.24508,-18.98211 -42.706,-28.746 -28.15545,-8.21575 -40.90626,-13.12159 -52,-20.00685 -20.49656,-12.72107 -29.021,-32.95683 -24.00313,-56.97987 6.64442,-31.81017 32.83616,-56.70319 69.8653,-66.40102 44.46121,-11.64426 86.64057,-0.44586 122.75499,19.10499 -0.005,0.0697 -22.4206,43.63664 -22.4206,43.63664 -9.65673,-6.58694 -34.11779,-16.50884 -48.74328,-19.28999 -12.60518,-2.39697 -30.65888,-2.03713 -38.49318,-0.003 -17.03079,4.42087 -26.4601,12.81135 -26.4601,23.545 0,5.40976 2.86264,9.96604 8.6842,13.82208 5.58906,3.70204 11.6624,6.02509 29.3158,11.21329 46.17938,13.57176 64.19866,22.93523 74.85919,38.89949 6.57187,9.84145 8.47478,17.61644 7.90343,32.2922 -0.39279,10.08942 -0.9794,13.64023 -3.4166,20.68081 -7.54069,21.78357 -23.95068,39.91082 -46.22028,51.05711 -19.87777,10.22969 -42.31393,10.77951 -64.15037,11.06867 z"/>
    <!-- Q -->
    <path d="m -72.853384,-109.36766 c -0.286,-1.2375 -1.3122,-7.7487 -2.2804,-14.46933 -0.9683,-6.72063 -2.0669,-12.71501 -2.4413,-13.32086 -0.4875,-0.7888 -2.7949,-0.66486 -8.1273,0.43658 -25.691296,5.3067 -56.673496,3.94395 -78.998296,-3.47473 -33.7944,-11.23009 -55.9707,-34.60368 -64.4425,-67.92166 -2.9003,-11.40618 -2.6705,-40.90087 0.4197,-53.87328 13.6943,-57.487 58.7879,-103.20675 116.5215,-118.1393 40.168296,-10.38936 78.668194,-6.36383 108.1517443,11.3083 9.04917,5.42398 22.3194697,18.15555 28.4006597,27.24768 5.43905,8.13206 10.24426,19.05183 13.32513,30.28117 1.7891,6.52102 2.11156,10.5331 2.14398,26.67543 0.0417,20.76072 -1.09254,27.88171 -7.48425,46.98785 -2.93028,8.7592 -13.52326,30.51215 -14.85844,30.51215 -0.59269,0 -20.8396797,-8.9255 -40.5557,-17.87822 l -7.02863,-3.19158 4.7692,-9.7151 c 6.90743,-14.07082 9.83305,-25.15365 10.48389,-39.7151 0.66097,-14.78822 -0.51275,-21.53214 -5.56931,-32 -11.43188,-23.6657 -40.01818,-35.05184 -72.475278,-28.86741 -45.902696,8.74636 -80.988496,49.10168 -83.349296,95.86741 -1.6145,31.98157 13.3318,53.61512 42.1981,61.07825 14.8002,3.82648 50.232496,0.92747 49.845196,-4.07825 -0.085,-1.1 -1.6127,-12.69738 -3.3947,-25.77196 -1.782,-13.07457 -3.0157,-23.99618 -2.7417,-24.27024 0.2741,-0.27406 3.8267,1.04054 7.8947,2.92133 9.7315,4.49918 38.043198,17.35589 49.396498,22.43158 4.94995,2.21298 19.12495,8.6118 31.4999503,14.21959 12.3749997,5.60779 23.3039997,10.4986 24.2866697,10.86848 1.43551,0.54032 0.0597,2.06489 -7,7.75693 -18.2315397,14.69957 -58.59392,47.28517 -72.57812,58.59429 -7.9912,6.4625 -14.745998,11.75 -15.010598,11.75 -0.2646,0 -0.7151,-1.0125 -1.0011,-2.25 z"/>
    <!-- Q tail swoosh -->
    <path d="m -2.7753328,-148.48535 c 64.5021068,65.959739 149.3235028,44.43548 203.0232728,19.65883 13.56092,-6.25692 39.52549,-21.11467 50.893,-29.75399 -4.03292,-6.48067 -5.46569,-8.70084 -10.46048,-16.17511 -3.37817,-5.05512 -6.95346,-10.20276 -6.47578,-10.20197 10.13779,0.0167 10.11802,0.0198 46.00516,0.18619 16.53567,0.0767 33.22373,0.12483 37.08457,0.10705 13.52344,-0.0623 38.38251,-0.15715 38.38251,-0.15715 0,0 -5.39204,11.15686 -12.06055,23.62275 -6.66851,12.46589 -18.37563,34.41554 -26.01582,48.777 l -13.89127,26.111722 -10.02176,-11.6747 -10.02175,-11.674682 c -107.59489,62.36986 -215.994774,76.74103 -314.296948,5.18705 l -13.35238,-10.47952"/>
  </g>
</svg>
